<svg width="17" height="16" viewBox="0 0 17 16" fill="none" xmlns="http://www.w3.org/2000/svg">
<path id="Vector" d="M12.7044 3.80714C12.4444 3.54714 12.0244 3.54714 11.7644 3.80714L8.50438 7.06047L5.24438 3.80047C4.98438 3.54047 4.56437 3.54047 4.30437 3.80047C4.04438 4.06047 4.04438 4.48047 4.30437 4.74047L7.56438 8.00047L4.30437 11.2605C4.04438 11.5205 4.04438 11.9405 4.30437 12.2005C4.56437 12.4605 4.98438 12.4605 5.24438 12.2005L8.50438 8.94047L11.7644 12.2005C12.0244 12.4605 12.4444 12.4605 12.7044 12.2005C12.9644 11.9405 12.9644 11.5205 12.7044 11.2605L9.44438 8.00047L12.7044 4.74047C12.9577 4.48714 12.9577 4.06047 12.7044 3.80714Z" fill="#3E4348"/>
</svg>
