<svg width="24" height="24" viewBox="0 0 24 24" fill="none" xmlns="http://www.w3.org/2000/svg">
<path d="M12.4982 4C9.5526 4 7.19395 5.34155 5.47691 6.93829C3.77081 8.52044 2.62976 10.4161 2.09023 11.7176C1.96992 12.0056 1.96992 12.3264 2.09023 12.6144C2.62976 13.9158 3.77081 15.8115 5.47691 17.3936C7.19395 18.9903 9.5526 20.3319 12.4982 20.3319C15.4438 20.3319 17.8024 18.9903 19.5194 17.3936C21.2255 15.8078 22.3665 13.9158 22.9098 12.6144C23.0301 12.3264 23.0301 12.0056 22.9098 11.7176C22.3665 10.4161 21.2255 8.52044 19.5194 6.93829C17.8024 5.34155 15.4438 4 12.4982 4ZM17.7477 12.1659C17.7477 15.0641 15.3963 17.4155 12.4982 17.4155C9.59999 17.4155 7.24863 15.0641 7.24863 12.1659C7.24863 9.26777 9.59999 6.91641 12.4982 6.91641C15.3963 6.91641 17.7477 9.26777 17.7477 12.1659ZM12.4982 9.83282C12.4982 11.1197 11.4519 12.1659 10.165 12.1659C9.7458 12.1659 9.35209 12.0566 9.01306 11.8597C9.00576 11.9618 8.99848 12.0602 8.99848 12.1659C8.99848 14.0981 10.566 15.6657 12.4982 15.6657C14.4303 15.6657 15.9979 14.0981 15.9979 12.1659C15.9979 10.2338 14.4303 8.66626 12.4982 8.66626C12.3961 8.66626 12.294 8.6699 12.192 8.68084C12.3852 9.01988 12.4982 9.41359 12.4982 9.83282Z" fill="#B5BABF"/>
</svg>
