<svg width="24" height="24" viewBox="0 0 24 24" fill="none" xmlns="http://www.w3.org/2000/svg">
<path d="M9.57824 1.22403C9.90033 0.922583 10.4 0.926713 10.7221 1.22816C11.8618 2.29769 12.9314 3.44982 13.9307 4.6969C14.3849 4.10226 14.9011 3.45394 15.4586 2.92538C15.7848 2.61979 16.2886 2.61979 16.6148 2.9295C18.0436 4.29222 19.2536 6.09266 20.1042 7.80227C20.9425 9.48708 21.5 11.2091 21.5 12.4231C21.5 17.6923 17.3788 22.1439 12.25 22.1439C7.06338 22.1439 3 17.6882 3 12.419C3 10.8333 3.73504 8.89657 4.87478 6.98049C6.02689 5.03552 7.6539 3.00796 9.57824 1.22403ZM12.3202 18.1796C13.3649 18.1796 14.2899 17.8905 15.1613 17.3124C16.8998 16.0983 17.3664 13.6702 16.3216 11.7624C16.206 11.5312 16.0904 11.2999 15.917 11.0687L13.8275 13.4968C13.8275 13.4968 10.4661 9.21866 10.2307 8.92961C8.4963 11.0687 7.625 12.2827 7.625 13.6702C7.625 16.503 9.71451 18.1796 12.3202 18.1796Z" fill="black"/>
</svg>
