<svg width="24" height="24" viewBox="0 0 24 24" fill="none" xmlns="http://www.w3.org/2000/svg">
<path d="M22 9.38747C22 9.56695 21.8937 9.75792 21.6855 9.96468L17.322 14.222L18.3601 20.2296C18.3659 20.2856 18.3716 20.3703 18.3716 20.4708C18.3752 20.6231 18.33 20.7726 18.2424 20.8973C18.2009 20.9542 18.1457 20.9999 18.082 21.03C18.0183 21.0601 17.948 21.0737 17.8777 21.0696C17.7075 21.0658 17.5412 21.0178 17.3952 20.9303L11.9993 18.093L6.60335 20.9303C6.4566 21.0163 6.29086 21.0646 6.1209 21.071C5.9529 21.071 5.82942 21.0136 5.74614 20.8973C5.65856 20.7726 5.61327 20.6231 5.61691 20.4708C5.61691 20.4263 5.62697 20.3416 5.63845 20.2296L6.67657 14.222L2.30153 9.96468C2.10051 9.75217 2 9.55546 2 9.38747C2 9.09599 2.22256 8.91076 2.67198 8.83753L8.70687 7.95736L11.4106 2.48819C11.5613 2.16369 11.7581 2 11.9993 2C12.2405 2 12.4372 2.16369 12.588 2.48819L15.2917 7.95736L21.3266 8.83753C21.776 8.91076 22 9.09599 22 9.38747Z" fill="black"/>
</svg>
